<?xml version="1.0" encoding="utf-8"?>
<!-- Generator: Adobe Illustrator 28.0.0, SVG Export Plug-In . SVG Version: 6.00 Build 0)  -->
<svg version="1.1" id="Layer_1" xmlns="http://www.w3.org/2000/svg" xmlns:xlink="http://www.w3.org/1999/xlink" x="0px" y="0px"
	 viewBox="0 0 91.8 81.5" style="enable-background:new 0 0 91.8 81.5;" xml:space="preserve">
<style type="text/css">
	.st0{fill:url(#SVGID_1_);}
</style>
<g id="Layer_2_00000017507467664787169470000017330360862240497306_">
	<g id="Layer_1-2">
		
			<linearGradient id="SVGID_1_" gradientUnits="userSpaceOnUse" x1="3.0996" y1="40.5156" x2="87.2928" y2="40.5156" gradientTransform="matrix(1 0 0 -1 0 81.2756)">
			<stop  offset="0" style="stop-color:#90CEA1"/>
			<stop  offset="0.56" style="stop-color:#3CBEC9"/>
			<stop  offset="1" style="stop-color:#00B3E5"/>
		</linearGradient>
		<path class="st0" d="M49.9,38.7h29.6c4.3,0,7.8-3.5,7.8-7.8l0,0c0-4.3-3.5-7.8-7.8-7.8H49.9c-4.3,0-7.8,3.5-7.8,7.8c0,0,0,0,0,0
			l0,0C42,35.2,45.5,38.7,49.9,38.7z M10.9,58.6h34c4.3,0,7.8-3.5,7.8-7.8l0,0c0-4.3-3.5-7.8-7.8-7.8h-34c-4.3,0-7.8,3.5-7.8,7.8
			c0,0,0,0,0,0l0,0C3.1,55.1,6.6,58.6,10.9,58.6z M7.7,38.4h3.5V25.8h4.5v-3.1H3.2v3.1h4.5L7.7,38.4z M20.1,38.4h3.5v-12h0l4,12h2.7
			l4.1-12h0v12h3.5V22.7h-5.2L29,33h0l-3.6-10.2h-5.2L20.1,38.4z M70.6,47.4c-0.5-1-1.1-1.8-2-2.4c-0.9-0.6-1.9-1.1-3-1.4
			c-1.2-0.3-2.4-0.4-3.6-0.4h-5.2v15.7h5.6c1.1,0,2.3-0.2,3.3-0.5c1-0.3,2-0.8,2.8-1.5c0.8-0.7,1.5-1.5,1.9-2.4
			c0.5-1,0.7-2.2,0.7-3.4C71.3,49.8,71.1,48.5,70.6,47.4z M67.3,53.1c-0.3,0.6-0.7,1.1-1.2,1.5c-0.5,0.4-1.1,0.7-1.8,0.8
			c-0.7,0.2-1.5,0.2-2.2,0.2h-1.8v-9.3h2c0.7,0,1.4,0.1,2.1,0.3c0.6,0.2,1.2,0.4,1.7,0.8c0.5,0.4,0.9,0.8,1.1,1.4
			c0.3,0.6,0.5,1.3,0.4,2C67.7,51.6,67.6,52.4,67.3,53.1z M87,53c-0.2-0.4-0.4-0.8-0.7-1.2c-0.3-0.3-0.7-0.6-1.1-0.8
			c-0.4-0.2-0.9-0.4-1.4-0.4v0c0.8-0.2,1.4-0.7,2-1.2c0.5-0.6,0.8-1.4,0.7-2.2c0-0.7-0.1-1.4-0.5-2.1c-0.3-0.5-0.8-0.9-1.3-1.2
			c-0.6-0.3-1.2-0.5-1.8-0.6c-0.7-0.1-1.4-0.1-2-0.1H75v15.7h6.4c0.7,0,1.4-0.1,2.1-0.2c0.7-0.1,1.3-0.4,1.9-0.7
			c0.6-0.3,1-0.8,1.4-1.3c0.4-0.6,0.6-1.3,0.5-2.1C87.3,54,87.2,53.5,87,53L87,53z M78.4,46.1h2.3c0.3,0,0.5,0,0.8,0.1
			c0.3,0,0.5,0.1,0.8,0.3c0.2,0.1,0.4,0.3,0.5,0.5c0.1,0.2,0.2,0.5,0.2,0.8c0,0.3-0.1,0.6-0.2,0.8c-0.1,0.2-0.3,0.4-0.5,0.5
			c-0.2,0.1-0.5,0.2-0.7,0.3c-0.3,0.1-0.5,0.1-0.8,0.1h-2.5L78.4,46.1z M83.6,54.9c-0.1,0.2-0.3,0.4-0.5,0.6
			c-0.2,0.2-0.5,0.3-0.7,0.3c-0.3,0.1-0.5,0.1-0.8,0.1h-3.1v-3.5H81c0.3,0,0.6,0,0.9,0.1c0.3,0,0.6,0.1,0.9,0.2
			c0.3,0.1,0.5,0.3,0.7,0.5c0.2,0.3,0.3,0.6,0.3,0.9C83.8,54.4,83.8,54.7,83.6,54.9L83.6,54.9z"/>
	</g>
</g>
</svg>
