<?xml version="1.0" encoding="utf-8"?>
<!-- Generator: Adobe Illustrator 27.9.0, SVG Export Plug-In . SVG Version: 6.00 Build 0)  -->
<svg version="1.1" id="Layer_1" xmlns="http://www.w3.org/2000/svg" xmlns:xlink="http://www.w3.org/1999/xlink" x="0px" y="0px"
	 viewBox="0 0 15 14" style="enable-background:new 0 0 15 14;" xml:space="preserve">
<style type="text/css">
	.st0{fill:#FFFFFF;}
</style>
<path class="st0" d="M8,0C4.1,0,1,3.1,1,7c0,3.9,3.1,7,7,7c3.9,0,7-3.1,7-7C15,3.1,11.9,0,8,0L8,0z M11.2,10.1
	c-0.1,0.2-0.4,0.3-0.6,0.1C9,9.2,6.9,9,4.5,9.6C4.2,9.6,4,9.5,3.9,9.2C3.9,9,4,8.8,4.3,8.7c2.7-0.6,5-0.3,6.8,0.8
	C11.3,9.6,11.3,9.9,11.2,10.1z M12.1,8.2c-0.2,0.3-0.5,0.3-0.8,0.2c-1.9-1.2-4.7-1.5-7-0.8C4,7.6,3.7,7.5,3.7,7.2
	C3.6,6.9,3.7,6.6,4,6.5c2.5-0.8,5.7-0.4,7.9,0.9C12.1,7.6,12.2,7.9,12.1,8.2z M12.1,6.2C9.9,4.9,6.2,4.7,4,5.4
	C3.7,5.5,3.3,5.3,3.2,5C3.1,4.6,3.3,4.2,3.6,4.1c2.5-0.8,6.6-0.6,9.2,0.9C13.1,5.3,13.2,5.7,13,6C12.9,6.3,12.4,6.4,12.1,6.2
	L12.1,6.2z"/>
</svg>
