<?xml version="1.0" encoding="utf-8"?>
<!-- Generator: Adobe Illustrator 27.9.0, SVG Export Plug-In . SVG Version: 6.00 Build 0)  -->
<svg version="1.1" id="Layer_1" xmlns="http://www.w3.org/2000/svg" xmlns:xlink="http://www.w3.org/1999/xlink" x="0px" y="0px"
	 viewBox="0 0 15 14" style="enable-background:new 0 0 15 14;" xml:space="preserve">
<style type="text/css">
	.st0{fill:#FFFFFF;}
</style>
<path class="st0" d="M5.4,13.1c5.3,0,8.2-4.4,8.2-8.2c0-0.1,0-0.2,0-0.4c0.6-0.4,1-0.9,1.4-1.5c-0.5,0.2-1.1,0.4-1.7,0.5
	c0.6-0.4,1-0.9,1.3-1.6c-0.6,0.3-1.2,0.6-1.8,0.7c-0.5-0.6-1.3-0.9-2.1-0.9C9.1,1.8,7.8,3,7.8,4.6c0,0.2,0,0.4,0.1,0.7
	C5.5,5.2,3.4,4,2,2.3C1.7,2.7,1.6,3.2,1.6,3.7c0,1,0.5,1.9,1.3,2.4C2.4,6.1,1.9,6,1.6,5.8c0,0,0,0,0,0c0,1.4,1,2.6,2.3,2.8
	C3.6,8.7,3.4,8.7,3.1,8.7c-0.2,0-0.4,0-0.5-0.1c0.4,1.1,1.4,2,2.7,2c-1,0.8-2.2,1.2-3.6,1.2c-0.2,0-0.5,0-0.7,0
	C2.3,12.6,3.8,13.1,5.4,13.1z"/>
</svg>
