<?xml version="1.0" encoding="utf-8"?>
<!-- Generator: Adobe Illustrator 27.9.0, SVG Export Plug-In . SVG Version: 6.00 Build 0)  -->
<svg version="1.1" id="Layer_1" xmlns="http://www.w3.org/2000/svg" xmlns:xlink="http://www.w3.org/1999/xlink" x="0px" y="0px"
	 viewBox="0 0 15 14" style="enable-background:new 0 0 15 14;" xml:space="preserve">
<style type="text/css">
	.st0{fill:#FFFFFF;}
</style>
<path class="st0" d="M8,1.7C8,1.7,8.1,1.7,8,1.7L8,1.7c0.8,0,4.4,0,5.4,0.3c0.6,0.2,1.1,0.6,1.2,1.2c0.1,0.3,0.2,0.8,0.2,1.2l0,0.1
	c0,0.1,0,0.2,0,0.2l0,0.1C15,5.7,15,6.5,15,6.6l0,0c0,0,0,0,0,0v0c0,0,0,0,0,0l0,0c0,0.2,0,1-0.1,1.8l0,0.1l0,0.1
	c0,0.5-0.1,1-0.2,1.4c-0.2,0.6-0.6,1.1-1.2,1.2c-1,0.3-4.9,0.3-5.4,0.3l0,0c0,0,0,0,0,0h0c0,0,0,0,0,0l-0.1,0c-0.3,0-1.4,0-2.6,0
	l-0.1,0c0,0-0.1,0-0.1,0l-0.2,0l-0.1,0c-1,0-1.9-0.1-2.3-0.2c-0.6-0.2-1.1-0.6-1.2-1.2C1.2,9.7,1.1,9.2,1.1,8.7l0-0.1l0-0.1
	C1,7.7,1,6.9,1,6.7l0,0c0,0,0,0,0,0v0c0,0,0,0,0,0l0,0c0-0.2,0-0.8,0.1-1.6l0-0.1c0,0,0,0,0,0l0-0.1c0-0.1,0-0.2,0-0.2l0-0.1
	c0-0.5,0.1-0.9,0.2-1.2C1.4,2.7,1.9,2.2,2.5,2C3,1.9,3.9,1.9,4.8,1.8l0.1,0l0.2,0c0,0,0.1,0,0.1,0l0.1,0c1.1,0,2.1,0,2.5,0l0.1,0
	C7.9,1.7,7.9,1.7,8,1.7L8,1.7z M6.6,4.6v4.2l3.6-2.1L6.6,4.6z"/>
</svg>
